# xmcd
#
# Track frame offsets: 
#        150
#        4275
#        5076
#        5937
#        6755
#        7614
#        8428
#        9180
#        9940
#        10717
#        12066
#        12855
#        13609
#        14405
#        15250
#        16051
#        16825
#        17610
#        18439
#        19210
#        19945
#        20699
#        21490
#        22249
#        23043
#        23809
#        24649
#        25388
#        26174
#        26906
#        27862
#        29083
#        30049
#        30908
#        32710
#        36401
#        40197
#        44128
#        48253
#        49254
#        50378
#        52253
#        54129
#        55827
#        60102
#        60777
#        61612
#        62662
#        64811
#        65486
#        66161
#        66836
#        67511
#        68392
#        69067
#        69923
#        70879
#
# Disc length: 954 seconds
#
# Revision: 0
# Processed by: cddbd v1.5.2PL0 Copyright (c) Steve Scherf et al.
# Submitted via: ExactAudioCopyFreeDBPlugin 1.0
#
DISCID=aa03b839
DTITLE=Johnny Winter - Johnny Winter Plays The Blues
DYEAR=1900
DGENRE=Blues
TTITLE0=Track01 D-G-C-F-A-D
TTITLE1=Track02  D-G-C-F-A-D
TTITLE2=Track03  D-G-C-F-A-D
TTITLE3=Track04  D-G-C-F-A-D
TTITLE4=Track05  D-G-C-F-A-D
TTITLE5=Track06  D-G-C-F-A-D
TTITLE6=Track07  D-G-C-F-A-D
TTITLE7=Track08  D-G-C-F-A-D
TTITLE8=Track09  D-G-C-F-A-D
TTITLE9=Track10  D-G-C-F-A-D
TTITLE10=Track11  D-G-C-F-A-D
TTITLE11=Track12  D-G-C-F-A-D
TTITLE12=Track13  D-G-C-F-A-D
TTITLE13=Track14  D-G-C-F-A-D
TTITLE14=Track15  D-G-C-F-A-D
TTITLE15=Track16  D-G-C-F-A-D
TTITLE16=Track17  D-G-C-F-A-D
TTITLE17=Track18  D-G-C-F-A-D
TTITLE18=Track19  D-G-C-F-A-D
TTITLE19=Track20  D-G-C-F-A-D
TTITLE20=Track21  D-G-C-F-A-D
TTITLE21=Track22  D-G-C-F-A-D
TTITLE22=Track23  D-G-C-F-A-D
TTITLE23=Track24  D-G-C-F-A-D
TTITLE24=Track25  D-G-C-F-A-D
TTITLE25=Track26  D-G-C-F-A-D
TTITLE26=Track27  D-G-C-F-A-D
TTITLE27=Track28  D-G-C-F-A-D
TTITLE28=Track29  D-G-C-F-A-D
TTITLE29=Track30  D-G-C-F-A-D
TTITLE30=Track31  D-G-C-F-A-D
TTITLE31=Track32  D-G-C-F-A-D
TTITLE32=Track33  D-G-C-F-A-D
TTITLE33=Track34  D-G-C-F-A-D
TTITLE34=Track35  D-G-C-F-A-D
TTITLE35=Track36  D-G-C-F-A-D
TTITLE36=Track37  D-G-C-F-A-D
TTITLE37=Track38  D-G-D-G-B-D
TTITLE38=Track39 D-G-D-G-B-D
TTITLE39=Track40 D-G-D-G-B-D
TTITLE40=Track41 D-G-D-G-B-D
TTITLE41=Track42 D-G-D-G-B-D
TTITLE42=Track43 D-G-D-G-B-D
TTITLE43=Track44 D-G-D-G-B-D
TTITLE44=Track45 D-G-D-G-B-D
TTITLE45=Track46 D-G-D-G-B-D
TTITLE46=Track47 D-G-D-G-B-D
TTITLE47=Track48 D-G-D-G-B-D
TTITLE48=Track49 D-G-D-G-B-D
TTITLE49=Track50 D-G-D-G-B-D
TTITLE50=Track51 D-G-D-G-B-D
TTITLE51=Track52 D-G-D-G-B-D
TTITLE52=Track53 D-G-D-G-B-D
TTITLE53=Track54 D-G-D-G-B-D
TTITLE54=Track55 D-G-D-G-B-D
TTITLE55=Track56 D-G-D-G-B-D
TTITLE56=Track57 D-G-D-G-B-D
EXTD=
EXTT0=
EXTT1=
EXTT2=
EXTT3=
EXTT4=
EXTT5=
EXTT6=
EXTT7=
EXTT8=
EXTT9=
EXTT10=
EXTT11=
EXTT12=
EXTT13=
EXTT14=
EXTT15=
EXTT16=
EXTT17=
EXTT18=
EXTT19=
EXTT20=
EXTT21=
EXTT22=
EXTT23=
EXTT24=
EXTT25=
EXTT26=
EXTT27=
EXTT28=
EXTT29=
EXTT30=
EXTT31=
EXTT32=
EXTT33=
EXTT34=
EXTT35=
EXTT36=
EXTT37=
EXTT38=
EXTT39=
EXTT40=
EXTT41=
EXTT42=
EXTT43=
EXTT44=
EXTT45=
EXTT46=
EXTT47=
EXTT48=
EXTT49=
EXTT50=
EXTT51=
EXTT52=
EXTT53=
EXTT54=
EXTT55=
EXTT56=
PLAYORDER=
